HIERARCHY
ROOT Hips
{
    OFFSET   0.000000   0.000000   0.000000
    CHANNELS 6 Xposition Yposition Zposition Zrotation Xrotation Yrotation
    JOINT Chest
    {
        OFFSET   0.000000   8.007240   0.000000
        CHANNELS 3 Zrotation Xrotation Yrotation
        JOINT Chest2
        {
            OFFSET   0.000000  22.077100   0.000000
            CHANNELS 3 Zrotation Xrotation Yrotation
            JOINT Neck
            {
                OFFSET   0.000000  23.254800   0.000000
                CHANNELS 3 Zrotation Xrotation Yrotation
                JOINT Head
                {
                    OFFSET   0.000000  14.370000   1.956600
                    CHANNELS 3 Zrotation Xrotation Yrotation
                    End Site
                    {
                        OFFSET   0.000000  19.566000   0.000000
                    }
                }
            }
            JOINT LeftCollar
            {
                OFFSET   3.911900  19.017000  -0.467064
                CHANNELS 3 Zrotation Xrotation Yrotation
                JOINT LeftShoulder
                {
                    OFFSET  10.383700   0.000000   0.000000
                    CHANNELS 3 Zrotation Xrotation Yrotation
                    JOINT LeftElbow
                    {
                        OFFSET  26.662100   0.001476   0.000517
                        CHANNELS 3 Zrotation Xrotation Yrotation
                        JOINT LeftWrist
                        {
                            OFFSET  28.869000  -0.000025  -0.000106
                            CHANNELS 3 Zrotation Xrotation Yrotation
                            JOINT LeftFinger0
                            {
                                OFFSET   2.044660  -2.323460   3.252850
                                CHANNELS 3 Zrotation Xrotation Yrotation
                                JOINT LeftFinger01
                                {
                                    OFFSET   3.088130   0.000000   0.000000
                                    CHANNELS 3 Zrotation Xrotation Yrotation
                                    JOINT LeftFinger02
                                    {
                                        OFFSET   2.639460   0.000000   0.000000
                                        CHANNELS 3 Zrotation Xrotation Yrotation
                                        End Site
                                        {
                                            OFFSET   2.582190   0.000000   0.000000
                                        }
                                    }
                                }
                            }
                            JOINT LeftFinger1
                            {
                                OFFSET   8.364480   0.000000   3.252850
                                CHANNELS 3 Zrotation Xrotation Yrotation
                                JOINT LeftFinger11
                                {
                                    OFFSET   4.646930   0.000000   0.000000
                                    CHANNELS 3 Zrotation Xrotation Yrotation
                                    JOINT LeftFinger12
                                    {
                                        OFFSET   2.323460   0.000000   0.000000
                                        CHANNELS 3 Zrotation Xrotation Yrotation
                                        End Site
                                        {
                                            OFFSET   2.273050   0.000000   0.000000
                                        }
                                    }
                                }
                            }
                            JOINT LeftFinger2
                            {
                                OFFSET   8.364490   0.000015   1.078090
                                CHANNELS 3 Zrotation Xrotation Yrotation
                                JOINT LeftFinger21
                                {
                                    OFFSET   5.111620   0.000000   0.000000
                                    CHANNELS 3 Zrotation Xrotation Yrotation
                                    JOINT LeftFinger22
                                    {
                                        OFFSET   2.788160   0.000016   0.000000
                                        CHANNELS 3 Zrotation Xrotation Yrotation
                                        End Site
                                        {
                                            OFFSET   2.727660   0.000000   0.000000
                                        }
                                    }
                                }
                            }
                            JOINT LeftFinger3
                            {
                                OFFSET   7.899780   0.000017  -1.078090
                                CHANNELS 3 Zrotation Xrotation Yrotation
                                JOINT LeftFinger31
                                {
                                    OFFSET   4.646930   0.000000   0.000000
                                    CHANNELS 3 Zrotation Xrotation Yrotation
                                    JOINT LeftFinger32
                                    {
                                        OFFSET   2.323470   0.000000   0.000000
                                        CHANNELS 3 Zrotation Xrotation Yrotation
                                        End Site
                                        {
                                            OFFSET   2.273050   0.000000   0.000000
                                        }
                                    }
                                }
                            }
                            JOINT LeftFinger4
                            {
                                OFFSET   7.435090   0.000000  -3.252850
                                CHANNELS 3 Zrotation Xrotation Yrotation
                                JOINT LeftFinger41
                                {
                                    OFFSET   3.717550   0.000000   0.000000
                                    CHANNELS 3 Zrotation Xrotation Yrotation
                                    JOINT LeftFinger42
                                    {
                                        OFFSET   1.858770   0.000000   0.000000
                                        CHANNELS 3 Zrotation Xrotation Yrotation
                                        End Site
                                        {
                                            OFFSET   1.818440   0.000000   0.000000
                                        }
                                    }
                                }
                            }
                        }
                    }
                }
            }
            JOINT RightCollar
            {
                OFFSET  -3.911900  19.017000  -0.467063
                CHANNELS 3 Zrotation Xrotation Yrotation
                JOINT RightShoulder
                {
                    OFFSET -10.383700   0.000019   0.000000
                    CHANNELS 3 Zrotation Xrotation Yrotation
                    JOINT RightElbow
                    {
                        OFFSET -26.662100   0.001175   0.000102
                        CHANNELS 3 Zrotation Xrotation Yrotation
                        JOINT RightWrist
                        {
                            OFFSET -28.869000   0.000016  -0.000079
                            CHANNELS 3 Zrotation Xrotation Yrotation
                            JOINT RightFinger0
                            {
                                OFFSET  -2.044660  -2.323490   3.252850
                                CHANNELS 3 Zrotation Xrotation Yrotation
                                JOINT RightFinger01
                                {
                                    OFFSET  -3.088140   0.000000   0.000000
                                    CHANNELS 3 Zrotation Xrotation Yrotation
                                    JOINT RightFinger02
                                    {
                                        OFFSET  -2.639460   0.000000   0.000000
                                        CHANNELS 3 Zrotation Xrotation Yrotation
                                        End Site
                                        {
                                            OFFSET  -2.582190   0.000000   0.000000
                                        }
                                    }
                                }
                            }
                            JOINT RightFinger1
                            {
                                OFFSET  -8.364480   0.000000   3.252850
                                CHANNELS 3 Zrotation Xrotation Yrotation
                                JOINT RightFinger11
                                {
                                    OFFSET  -4.646930   0.000000   0.000000
                                    CHANNELS 3 Zrotation Xrotation Yrotation
                                    JOINT RightFinger12
                                    {
                                        OFFSET  -2.323470   0.000000   0.000000
                                        CHANNELS 3 Zrotation Xrotation Yrotation
                                        End Site
                                        {
                                            OFFSET  -2.273050   0.000000   0.000000
                                        }
                                    }
                                }
                            }
                            JOINT RightFinger2
                            {
                                OFFSET  -8.364480   0.000000   1.078090
                                CHANNELS 3 Zrotation Xrotation Yrotation
                                JOINT RightFinger21
                                {
                                    OFFSET  -5.111620   0.000000   0.000000
                                    CHANNELS 3 Zrotation Xrotation Yrotation
                                    JOINT RightFinger22
                                    {
                                        OFFSET  -2.788160   0.000000   0.000000
                                        CHANNELS 3 Zrotation Xrotation Yrotation
                                        End Site
                                        {
                                            OFFSET  -2.727660   0.000000   0.000000
                                        }
                                    }
                                }
                            }
                            JOINT RightFinger3
                            {
                                OFFSET  -7.899780   0.000000  -1.078090
                                CHANNELS 3 Zrotation Xrotation Yrotation
                                JOINT RightFinger31
                                {
                                    OFFSET  -4.646930   0.000000   0.000000
                                    CHANNELS 3 Zrotation Xrotation Yrotation
                                    JOINT RightFinger32
                                    {
                                        OFFSET  -2.323470   0.000000   0.000000
                                        CHANNELS 3 Zrotation Xrotation Yrotation
                                        End Site
                                        {
                                            OFFSET  -2.273050   0.000000   0.000000
                                        }
                                    }
                                }
                            }
                            JOINT RightFinger4
                            {
                                OFFSET  -7.435090   0.000000  -3.252850
                                CHANNELS 3 Zrotation Xrotation Yrotation
                                JOINT RightFinger41
                                {
                                    OFFSET  -3.717550   0.000000   0.000000
                                    CHANNELS 3 Zrotation Xrotation Yrotation
                                    JOINT RightFinger42
                                    {
                                        OFFSET  -1.858770   0.000000   0.000000
                                        CHANNELS 3 Zrotation Xrotation Yrotation
                                        End Site
                                        {
                                            OFFSET  -1.818440   0.000000   0.000000
                                        }
                                    }
                                }
                            }
                        }
                    }
                }
            }
        }
    }
    JOINT LeftHip
    {
        OFFSET   9.783040   0.000000   0.000000
        CHANNELS 3 Zrotation Xrotation Yrotation
        JOINT LeftKnee
        {
            OFFSET   0.000032 -41.789100  -0.002222
            CHANNELS 3 Zrotation Xrotation Yrotation
            JOINT LeftAnkle
            {
                OFFSET   0.000087 -41.133200  -0.000135
                CHANNELS 3 Zrotation Xrotation Yrotation
                JOINT LeftToe
                {
                    OFFSET   0.000000  -6.358960  14.674500
                    CHANNELS 3 Zrotation Xrotation Yrotation
                    End Site
                    {
                        OFFSET   0.000000   0.000000   3.913200
                    }
                }
            }
        }
    }
    JOINT RightHip
    {
        OFFSET  -9.783040   0.000000   0.000000
        CHANNELS 3 Zrotation Xrotation Yrotation
        JOINT RightKnee
        {
            OFFSET   0.000047 -41.789100  -0.000896
            CHANNELS 3 Zrotation Xrotation Yrotation
            JOINT RightAnkle
            {
                OFFSET  -0.000117 -41.133300  -0.000248
                CHANNELS 3 Zrotation Xrotation Yrotation
                JOINT RightToe
                {
                    OFFSET   0.000000  -6.358970  14.674500
                    CHANNELS 3 Zrotation Xrotation Yrotation
                    End Site
                    {
                        OFFSET   0.000000   0.000000   3.913200
                    }
                }
            }
        }
    }
}
MOTION
Frames: 5
Frame Time:   0.016667
 -0.481998  89.513300   4.654740  -2.730570  -3.486890  -0.493882   1.625660   3.379050  -0.604964   3.295640   6.739330  -1.309310  -0.403483  -0.933990  -0.000161  -0.658482  -1.893750   8.510720  -9.273470   2.190490  -0.657730 -69.410800  12.024100  -5.266220  -2.375460  -9.017890 -10.869400   3.240750 -10.247900   6.163480  42.268600  27.403000 -62.214100 -20.434100   0.006889   0.002604  -5.225230  -0.005282  -0.002385 -32.097200   6.365670 -10.024800 -26.718600   0.001709  -0.000517 -18.703000   0.008160  -0.000414 -28.499400   1.322930  -2.447360 -36.533400  -0.011189  -0.011010 -24.324100   0.002976  -0.007934 -28.487700  -1.727830   3.179010 -36.670700  -0.006378  -0.002747 -24.428900   0.003223  -0.002259 -31.860100  -1.911810   3.071950 -47.876500  -0.008716  -0.002748 -31.877000   0.002309  -0.012949   8.780240  -1.693070  10.161300  69.555100   5.427460  -3.160600  -1.956170  -3.740100  12.786400 -12.951600 -11.762400   8.098510 -45.904800  28.845300  62.435400  12.485200  -0.000701  -0.008082   1.239790  -0.007139  -0.000174  28.905000   5.526680   9.894480  24.041200  -0.000611   0.008506  16.828800  -0.002291   0.003759  27.605200   2.639850   5.035350  30.301900  -0.002284  -0.003739  20.181000  -0.000795  -0.002840  27.902200   0.577375   1.090290  31.374700  -0.002578   0.002616  20.895600   0.002184   0.002248  33.609700   0.544665   0.822065  50.420100   0.005255   0.003040  33.579800   0.005421   0.001128   3.189340   7.601470   2.620060   1.358840   0.100833   7.947090  -1.317040  -3.296340   1.744840  -0.000000   0.000000   0.000000   2.076400   3.536730  -5.822840   1.107560   3.591050  -5.097580  -1.911840  -3.140080  -0.213917   0.000000   0.000000   0.000000
 -0.482006  89.513300   4.654900  -2.729490  -3.491750  -0.477215   1.622420   3.377450  -0.602806   3.288980   6.736240  -1.304750  -0.403571  -0.934029  -0.000166  -0.658672  -1.893740   8.518160  -9.273790   2.190760  -0.650344 -69.417800  12.013800  -5.265210  -2.374590  -9.015260 -10.866400   3.247960 -10.244400   6.163250  42.265400  27.407400 -62.225800 -20.440100   0.006888   0.002606  -5.225220  -0.005274  -0.002386 -32.104200   6.366060 -10.018300 -26.724300   0.001709  -0.000513 -18.707000   0.008159  -0.000412 -28.499500   1.322930  -2.442730 -36.534600  -0.011193  -0.011019 -24.328000   0.002971  -0.007934 -28.487200  -1.731620   3.186010 -36.668600  -0.006384  -0.002731 -24.429200   0.003209  -0.002247 -31.859100  -1.915810   3.078840 -47.870900  -0.008714  -0.002733 -31.877000   0.002308  -0.012952   8.785810  -1.686790  10.160900  69.566500   5.427910  -3.169140  -1.953970  -3.718600  12.771700 -12.941800 -11.754400   8.082400 -45.895400  28.834300  62.423200  12.487800  -0.000663  -0.008082   1.239650  -0.007143  -0.000184  28.916500   5.519870   9.877220  24.050800  -0.000617   0.008506  16.834900  -0.002284   0.003749  27.607200   2.628400   5.012350  30.323200  -0.002283  -0.003740  20.195200  -0.000800  -0.002847  27.902100   0.578737   1.092830  31.391800  -0.002562   0.002599  20.907000   0.002179   0.002238  33.619300   0.544776   0.822184  50.434700   0.005253   0.003029  33.589500   0.005412   0.001120   3.188050   7.625510   2.620650   1.358690   0.051746   7.942680  -1.313790  -3.271930   1.736170  -0.000000   0.000000   0.000000   2.076890   3.545630  -5.822590   1.106570   3.583010  -5.097600  -1.915830  -3.140140  -0.225727  -0.000000   0.000000   0.000000
 -0.482065  89.513300   4.655140  -2.727950  -3.500730  -0.453174   1.616980   3.374010  -0.599393   3.277830   6.729520  -1.297480  -0.403735  -0.934069  -0.000175  -0.658566  -1.893690   8.534570  -9.274290   2.191020  -0.639941 -69.431800  11.992900  -5.261310  -2.372250  -9.008030 -10.859600   3.258040 -10.236100   6.162880  42.259700  27.414800 -62.245400 -20.450500   0.006884   0.002607  -5.225210  -0.005265  -0.002392 -32.116200   6.366510 -10.009000 -26.733900   0.001709  -0.000501 -18.713800   0.008157  -0.000406 -28.499700   1.322940  -2.434350 -36.538400  -0.011203  -0.011043 -24.334600   0.002960  -0.007936 -28.486500  -1.738370   3.198470 -36.666500  -0.006400  -0.002695 -24.429400   0.003175  -0.002222 -31.857000  -1.923020   3.091050 -47.863300  -0.008708  -0.002699 -31.877000   0.002306  -0.012960   8.794780  -1.675660  10.160500  69.585200   5.428330  -3.182900  -1.946700  -3.686900  12.742100 -12.919500 -11.738300   8.066050 -45.881300  28.816800  62.404300  12.490400  -0.000578  -0.008083   1.239500  -0.007159  -0.000200  28.931600   5.513060   9.859960  24.060700  -0.000622   0.008501  16.842500  -0.002277   0.003724  27.609300   2.616940   4.989340  30.355700  -0.002282  -0.003748  20.216900  -0.000805  -0.002868  27.901900   0.584861   1.104330  31.417900  -0.002527   0.002559  20.924300   0.002175   0.002209  33.629000   0.544958   0.822348  50.449400   0.005248   0.003002  33.599300   0.005392   0.001096   3.186640   7.649550   2.621230   1.358520   0.002659   7.936530  -1.310840  -3.247540   1.722130   0.000000   0.000000   0.000000   2.077990   3.560470  -5.822370   1.105260   3.571410  -5.097610  -1.922920  -3.140200  -0.242666   0.000000   0.000000  -0.000000
 -0.482605  89.513300   4.655280  -2.727280  -3.509510  -0.442153   1.612450   3.369020  -0.596536   3.268450   6.719660  -1.291250  -0.403952  -0.929895  -0.000183  -0.658972  -1.885240   8.557450  -9.274570   2.190120  -0.636996 -69.447800  11.965000  -5.252850  -2.368320  -8.994830 -10.850900   3.261890 -10.224100   6.162560  42.253200  27.419000 -62.262200 -20.458400   0.006877   0.002600  -5.228070  -0.005267  -0.002411 -32.128300   6.365150 -10.006200 -26.743000   0.001706  -0.000482 -18.720100   0.008155  -0.000397 -28.500000   1.319910  -2.426840 -36.547400  -0.011219  -0.011080 -24.341500   0.002943  -0.007940 -28.485800  -1.744710   3.210110 -36.669700  -0.006425  -0.002644 -24.427900   0.003124  -0.002188 -31.854300  -1.929960   3.102340 -47.861800  -0.008699  -0.002650 -31.876700   0.002303  -0.012972   8.801300  -1.664530  10.162500  69.599700   5.425210  -3.191450  -1.931960  -3.673670  12.703500 -12.888800 -11.717100   8.066030 -45.876900  28.803200  62.392600  12.487500  -0.000459  -0.008085   1.239860  -0.007191  -0.000213  28.934200   5.519550   9.871680  24.061000  -0.000615   0.008484  16.843900  -0.002277   0.003685  27.611400   2.624520   5.003250  30.376600  -0.002279  -0.003766  20.230700  -0.000803  -0.002901  27.903000   0.598359   1.129720  31.433000  -0.002483   0.002497  20.934400   0.002180   0.002159  33.627800   0.545135   0.822414  50.448600   0.005242   0.002963  33.598100   0.005365   0.001056   3.187630   7.622230   2.620930   1.360870   0.061804   7.933960  -1.315630  -3.278750   1.711560   0.000000   0.000000  -0.000000   2.080260   3.572890  -5.822510   1.105600   3.565160  -5.097410  -1.929410  -3.137450  -0.250717   0.000000   0.000000   0.000000
 -0.483609  89.513300   4.655350  -2.726900  -3.519880  -0.434895   1.608180   3.364270  -0.594932   3.259740   6.710290  -1.287720  -0.404093  -0.922765  -0.000197  -0.659972  -1.870820   8.582390  -9.274850   2.187920  -0.633584 -69.466000  11.938800  -5.243100  -2.363660  -8.981070 -10.839600   3.263720 -10.210000   6.162260  42.249200  27.426800 -62.277500 -20.469200   0.006870   0.002592  -5.234610  -0.005270  -0.002432 -32.138000   6.361360 -10.002300 -26.750600   0.001700  -0.000458 -18.725500   0.008149  -0.000385 -28.500500   1.313800  -2.417380 -36.553800  -0.011241  -0.011123 -24.345800   0.002921  -0.007944 -28.485100  -1.751570   3.222740 -36.672900  -0.006458  -0.002590 -24.424100   0.003063  -0.002152 -31.851100  -1.937500   3.114570 -47.860800  -0.008687  -0.002593 -31.875500   0.002299  -0.012987   8.807600  -1.654130  10.167200  69.613700   5.418260  -3.202400  -1.915590  -3.658500  12.666400 -12.857300 -11.697600   8.069640 -45.869700  28.789900  62.386100  12.484600  -0.000327  -0.008092   1.242340  -0.007229  -0.000219  28.932600   5.531760   9.893680  24.061200  -0.000609   0.008460  16.844400  -0.002278   0.003636  27.613900   2.638780   5.029750  30.391400  -0.002275  -0.003792  20.240600  -0.000802  -0.002944  27.905100   0.615478   1.161940  31.445900  -0.002428   0.002423  20.943000   0.002189   0.002098  33.626700   0.545240   0.822434  50.447900   0.005233   0.002914  33.597000   0.005331   0.001008   3.188830   7.594920   2.619800   1.364530   0.136922   7.933150  -1.320630  -3.312910   1.701890   0.000000   0.000000   0.000000   2.083890   3.584280  -5.822990   1.107730   3.562480  -5.097160  -1.936640  -3.131830  -0.254947  -0.000000   0.000000  -0.000000
